<?xml version="1.0" encoding="UTF-8" standalone="no"?>
<!DOCTYPE svg PUBLIC "-//W3C//DTD SVG 1.1//EN" "http://www.w3.org/Graphics/SVG/1.1/DTD/svg11.dtd">
<svg width="100%" height="100%" viewBox="0 0 161 80" version="1.1" xmlns="http://www.w3.org/2000/svg" xmlns:xlink="http://www.w3.org/1999/xlink" xml:space="preserve" xmlns:serif="http://www.serif.com/" style="fill-rule:evenodd;clip-rule:evenodd;stroke-miterlimit:22.926;">
    <g transform="matrix(1.06674,0,0,1.09248,4.04098,3.69927e-05)">
        <g id="Camada-1" serif:id="Camada 1">
            <g transform="matrix(1,0,0,1,34.6176,55.0909)">
                <path d="M0,-50.969L-7.268,3.207L37.181,0L38.916,-12.938L12.259,-11.014L13.446,-19.861L35.005,-21.417L36.619,-33.447L15.06,-31.892L16.115,-39.748L42.771,-41.671L42.926,-42.819L5.854,-42.819L6.88,-48.148L43.64,-48.148L44.448,-54.176L0,-50.969Z" style="fill:rgb(102,102,102);fill-rule:nonzero;"/>
            </g>
            <g transform="matrix(1,0,0,1,71.5804,15.6218)">
                <path d="M0,28.215L17.049,23.61C18.035,27.837 21.444,29.634 27.277,29.003C31.828,28.51 34.205,27.149 34.423,24.918C34.538,23.748 34.112,22.892 33.115,22.354C32.133,21.815 30.318,21.445 27.657,21.236C17.512,20.518 11.118,18.841 8.475,16.22C5.817,13.587 4.698,10.276 5.088,6.29C5.432,2.781 6.722,-0.433 8.958,-3.349L53.462,-3.349L38.425,2.329C37.235,-1.148 34.262,-2.63 29.519,-2.116C25.571,-1.689 23.487,-0.346 23.266,1.912C23.168,2.919 23.547,3.658 24.376,4.12C25.22,4.581 26.892,4.924 29.405,5.151C36.31,5.776 41.198,6.458 44.055,7.198C46.926,7.937 49.224,9.479 50.946,11.836C52.685,14.178 53.376,17.091 53.035,20.573C52.498,26.069 49.646,30.793 44.481,34.731C39.315,38.669 32.8,41.07 24.949,41.921C10.603,43.474 2.278,38.898 0,28.215M14.599,-8.68C18.923,-11.663 24.51,-13.526 31.348,-14.267C40.502,-15.259 47.032,-13.391 50.938,-8.68L14.599,-8.68Z" style="fill:rgb(102,102,102);fill-rule:nonzero;"/>
            </g>
            <g transform="matrix(47.3177,0,0,-47.3177,47.6744,35.9311)">
                <rect x="-1.008" y="-0.5" width="3.015" height="1" style="fill:url(#_Linear1);"/>
            </g>
            <g transform="matrix(1,0,0,1,66.4315,18.3034)">
                <path d="M0,27.947L-2.604,40.724L-44.102,40.723L-33.202,-12.776L8.297,-12.776L5.781,-0.428L-19.107,-0.428L-20.688,7.331L-0.559,7.331L-2.98,19.211L-23.108,19.211L-24.889,27.947L0,27.947ZM2.467,25.244L18.74,22.502C19.187,26.81 22.142,28.964 27.604,28.964C31.868,28.964 34.216,27.866 34.663,25.673C34.897,24.522 34.597,23.626 33.734,22.984C32.886,22.342 31.249,21.78 28.811,21.284C19.508,19.479 13.779,17.124 11.623,14.235C9.455,11.331 8.784,7.92 9.583,4C10.61,-1.044 13.439,-5.244 18.066,-8.589C22.693,-11.934 28.718,-13.606 36.126,-13.606C47.357,-13.606 53.885,-9.218 55.717,-0.469L40.847,3.652C40.129,0.067 37.541,-1.726 33.099,-1.726C29.402,-1.726 27.327,-0.615 26.875,1.605C26.672,2.595 26.942,3.371 27.658,3.92C28.388,4.468 29.896,4.99 32.195,5.485C38.512,6.849 42.957,8.054 45.518,9.097C48.092,10.14 50.047,11.92 51.381,14.448C52.73,16.964 53.05,19.933 52.352,23.358C51.25,28.763 48.094,33.152 42.885,36.509C37.675,39.867 31.386,41.553 24.032,41.553C10.595,41.553 3.399,36.108 2.467,25.244Z" style="fill:none;fill-rule:nonzero;stroke:white;stroke-width:2.06px;"/>
            </g>
            <g transform="matrix(1,0,0,1,66.4339,18.2897)">
                <path d="M0,27.948L-2.604,40.724L-44.102,40.724L-33.201,-12.776L8.297,-12.776L5.781,-0.427L-19.106,-0.427L-20.687,7.332L-0.559,7.332L-2.98,19.212L-23.108,19.212L-24.888,27.948L0,27.948ZM2.467,25.245L18.74,22.503C19.187,26.811 22.142,28.965 27.605,28.965C31.868,28.965 34.216,27.867 34.663,25.674C34.897,24.523 34.597,23.627 33.734,22.985C32.886,22.342 31.249,21.781 28.811,21.285C19.508,19.479 13.779,17.125 11.623,14.235C9.455,11.332 8.784,7.92 9.583,4.001C10.61,-1.043 13.439,-5.244 18.066,-8.589C22.693,-11.933 28.718,-13.606 36.126,-13.606C47.357,-13.606 53.885,-9.218 55.717,-0.468L40.847,3.653C40.128,0.067 37.542,-1.725 33.099,-1.725C29.402,-1.725 27.327,-0.615 26.875,1.606C26.673,2.596 26.942,3.372 27.659,3.92C28.388,4.469 29.896,4.99 32.196,5.486C38.512,6.85 42.957,8.054 45.518,9.097C48.092,10.141 50.047,11.921 51.381,14.449C52.73,16.964 53.05,19.934 52.352,23.359C51.25,28.764 48.094,33.152 42.885,36.51C37.675,39.868 31.386,41.554 24.032,41.554C10.595,41.554 3.399,36.109 2.467,25.245" style="fill:white;fill-rule:nonzero;"/>
            </g>
            <g transform="matrix(1,0,0,1,30.6644,6.94235)">
                <path d="M0,5.33L43.813,5.33L44.921,0L1.108,0L0,5.33Z" style="fill:white;"/>
            </g>
            <g transform="matrix(1,0,0,1,21.223,59.1051)">
                <path d="M0,3.366C0.315,2.432 0.899,1.468 1.979,0.449C2.309,0.123 2.665,-0.179 3.048,-0.464C3.875,-1.071 4.757,-1.526 5.704,-1.836C6.649,-2.142 7.64,-2.295 8.672,-2.295C9.708,-2.295 10.64,-2.137 11.473,-1.827C12.306,-1.516 13.019,-1.062 13.614,-0.464C14.266,0.201 14.719,0.992 14.975,1.907C15.006,2.021 15.034,2.137 15.058,2.253L15.84,-1.871L22.166,-1.871L21.177,3.343L21.187,3.343L20.834,5.147C20.607,6.312 20.802,6.957 21.568,6.811C22.123,6.991 22.62,6.657 22.812,5.652L23.253,3.343L23.254,3.343L23.278,3.217L23.278,3.213L24.243,-1.871L32.361,-1.871L33.192,-6.252L39.623,-6.252L38.792,-1.871L40.624,-1.871L40.147,0.643C40.392,0.301 40.66,-0.022 40.952,-0.323C42.204,-1.622 43.603,-2.268 45.15,-2.268C45.985,-2.268 46.706,-2.081 47.307,-1.7C47.913,-1.32 48.403,-0.747 48.788,0.013C48.798,-0.254 48.824,-0.572 48.873,-0.944C48.922,-1.316 49,-1.775 49.104,-2.321L50.272,-8.481L56.584,-8.481L54.484,2.594C54.607,2.363 54.745,2.135 54.894,1.91C55.5,1.001 56.257,0.21 57.167,-0.464C57.995,-1.071 58.877,-1.526 59.823,-1.836C60.769,-2.142 61.759,-2.295 62.791,-2.295C63.828,-2.295 64.759,-2.137 65.592,-1.827C66.425,-1.516 67.139,-1.062 67.733,-0.464C68.386,0.201 68.839,0.992 69.094,1.907C69.208,2.321 69.275,2.746 69.299,3.18C69.488,2.747 69.72,2.323 69.994,1.91C70.599,1.001 71.357,0.21 72.268,-0.464C73.095,-1.071 73.977,-1.526 74.923,-1.836C75.869,-2.142 76.859,-2.295 77.892,-2.295C78.928,-2.295 79.86,-2.137 80.693,-1.827C81.525,-1.516 82.239,-1.062 82.833,-0.464C83.486,0.201 83.938,0.992 84.194,1.907C84.274,2.199 84.331,2.496 84.366,2.799L85.252,-1.871L91.491,-1.871L91.138,-0.013C91.838,-0.774 92.567,-1.346 93.321,-1.726C94.076,-2.107 94.868,-2.295 95.698,-2.295C95.818,-2.295 95.91,-2.296 95.971,-2.291L95.156,3.343L94.165,3.343C91.96,3.452 90.518,4.371 90.191,6.098L89.195,11.348L82.751,11.348L83.626,6.733C83.477,7.033 83.308,7.329 83.117,7.619C82.517,8.524 81.752,9.324 80.831,10.015C80.022,10.614 79.144,11.069 78.194,11.379C77.243,11.689 76.251,11.847 75.215,11.847C74.183,11.847 73.25,11.694 72.421,11.387C71.593,11.077 70.883,10.622 70.286,10.015C69.629,9.35 69.172,8.559 68.914,7.641C68.796,7.224 68.724,6.798 68.7,6.364C68.513,6.792 68.286,7.21 68.016,7.619C67.417,8.524 66.653,9.324 65.73,10.015C64.922,10.614 64.044,11.069 63.094,11.379C62.143,11.689 61.151,11.847 60.115,11.847C59.083,11.847 58.151,11.694 57.321,11.387C56.492,11.077 55.783,10.622 55.186,10.015C54.529,9.35 54.072,8.559 53.813,7.641C53.75,7.415 53.699,7.186 53.663,6.955L52.829,11.348L46.849,11.348L47.218,9.403C46.508,10.22 45.762,10.832 44.977,11.239C44.187,11.645 43.358,11.847 42.479,11.847C40.879,11.847 39.717,11.196 38.981,9.888C38.246,8.581 38.085,6.85 38.495,4.685C38.583,4.223 38.692,3.781 38.823,3.357L37.807,3.357L36.291,11.348L29.86,11.348L31.376,3.358L29.569,3.359L29.212,5.241C28.779,7.528 27.875,9.201 26.499,10.26C25.126,11.318 23.164,11.847 20.619,11.847C18.066,11.847 16.3,11.318 15.32,10.26C14.599,9.484 14.259,8.377 14.3,6.941C14.178,7.17 14.044,7.396 13.897,7.619C13.297,8.524 12.533,9.324 11.611,10.015C10.802,10.614 9.925,11.069 8.974,11.379C8.023,11.689 7.032,11.847 5.996,11.847C4.964,11.847 4.031,11.694 3.202,11.387C2.373,11.077 1.664,10.622 1.066,10.015C0.41,9.35 -0.047,8.559 -0.306,7.641C-0.565,6.723 -0.597,5.761 -0.408,4.764C-0.317,4.288 -0.182,3.821 0.001,3.366L0,3.366ZM7.933,2.863C8.777,3.031 9.194,4.018 8.863,5.068C8.534,6.118 7.581,6.833 6.737,6.666C5.892,6.498 5.476,5.511 5.806,4.461C6.136,3.41 7.088,2.695 7.933,2.863ZM77.152,2.863C77.997,3.031 78.414,4.018 78.083,5.068C77.753,6.118 76.801,6.833 75.957,6.666C75.112,6.498 74.695,5.511 75.025,4.461C75.355,3.41 76.308,2.695 77.152,2.863ZM62.063,2.863C62.907,3.031 63.324,4.018 62.994,5.068C62.663,6.118 61.711,6.833 60.867,6.666C60.022,6.498 59.605,5.511 59.936,4.461C60.266,3.41 61.218,2.695 62.063,2.863ZM46.913,2.733C47.792,2.908 48.225,3.935 47.882,5.028C47.538,6.121 46.547,6.866 45.668,6.691C44.79,6.517 44.355,5.489 44.699,4.396C45.043,3.303 46.034,2.558 46.913,2.733Z" style="fill:none;fill-rule:nonzero;stroke:white;stroke-width:3.11px;"/>
            </g>
            <g transform="matrix(1,0,0,1,21.2235,59.0953)">
                <path d="M0,3.366C0.314,2.432 0.899,1.468 1.979,0.449C2.308,0.124 2.665,-0.179 3.048,-0.464C3.875,-1.071 4.757,-1.526 5.704,-1.836C6.649,-2.142 7.64,-2.295 8.672,-2.295C9.708,-2.295 10.64,-2.137 11.473,-1.827C12.306,-1.516 13.02,-1.062 13.614,-0.464C14.266,0.201 14.719,0.992 14.975,1.907C15.006,2.021 15.034,2.137 15.058,2.253L15.84,-1.871L22.166,-1.871L21.177,3.343L21.187,3.343L20.834,5.147C20.607,6.312 20.802,6.957 21.568,6.811C22.124,6.991 22.62,6.657 22.812,5.652L23.253,3.343L23.254,3.343L23.278,3.217L23.278,3.213L24.243,-1.871L32.361,-1.871L33.192,-6.252L39.624,-6.252L38.792,-1.871L40.624,-1.871L40.147,0.643C40.392,0.301 40.661,-0.022 40.952,-0.323C42.204,-1.622 43.603,-2.268 45.15,-2.268C45.985,-2.268 46.706,-2.081 47.307,-1.7C47.913,-1.32 48.403,-0.747 48.788,0.013C48.799,-0.254 48.824,-0.572 48.873,-0.944C48.922,-1.316 49,-1.775 49.104,-2.321L50.272,-8.481L56.584,-8.481L54.484,2.594C54.607,2.364 54.745,2.135 54.894,1.91C55.5,1.001 56.257,0.21 57.167,-0.464C57.995,-1.071 58.877,-1.526 59.824,-1.836C60.769,-2.142 61.76,-2.295 62.791,-2.295C63.828,-2.295 64.759,-2.137 65.592,-1.827C66.425,-1.516 67.139,-1.062 67.733,-0.464C68.386,0.201 68.839,0.992 69.094,1.907C69.208,2.321 69.276,2.746 69.299,3.179C69.488,2.747 69.72,2.323 69.994,1.91C70.6,1.001 71.357,0.21 72.268,-0.464C73.096,-1.071 73.977,-1.526 74.924,-1.836C75.869,-2.142 76.86,-2.295 77.892,-2.295C78.928,-2.295 79.86,-2.137 80.693,-1.827C81.526,-1.516 82.239,-1.062 82.834,-0.464C83.486,0.201 83.939,0.992 84.195,1.907C84.274,2.199 84.332,2.496 84.367,2.799L85.252,-1.871L91.491,-1.871L91.138,-0.012C91.838,-0.774 92.567,-1.346 93.322,-1.726C94.076,-2.107 94.868,-2.295 95.698,-2.295C95.818,-2.295 95.91,-2.296 95.971,-2.291L95.156,3.343L94.166,3.343C91.961,3.452 90.519,4.371 90.191,6.098L89.195,11.348L82.751,11.348L83.627,6.733C83.478,7.033 83.308,7.329 83.117,7.619C82.517,8.524 81.753,9.324 80.831,10.015C80.022,10.614 79.145,11.069 78.194,11.379C77.243,11.689 76.251,11.847 75.215,11.847C74.184,11.847 73.25,11.694 72.421,11.387C71.593,11.077 70.883,10.622 70.286,10.015C69.629,9.35 69.172,8.559 68.914,7.641C68.796,7.224 68.724,6.798 68.7,6.364C68.513,6.791 68.286,7.21 68.017,7.619C67.417,8.524 66.653,9.324 65.73,10.015C64.922,10.614 64.044,11.069 63.094,11.379C62.143,11.689 61.151,11.847 60.115,11.847C59.083,11.847 58.151,11.694 57.321,11.387C56.493,11.077 55.783,10.622 55.186,10.015C54.53,9.35 54.072,8.559 53.813,7.641C53.75,7.415 53.7,7.186 53.663,6.955L52.829,11.348L46.849,11.348L47.218,9.403C46.508,10.22 45.762,10.832 44.977,11.239C44.187,11.645 43.358,11.847 42.479,11.847C40.879,11.847 39.717,11.196 38.981,9.888C38.246,8.581 38.085,6.85 38.496,4.685C38.583,4.223 38.692,3.781 38.823,3.357L37.807,3.357L36.291,11.348L29.86,11.348L31.376,3.358L29.569,3.359L29.212,5.241C28.779,7.528 27.875,9.201 26.499,10.26C25.126,11.318 23.164,11.847 20.619,11.847C18.066,11.847 16.3,11.318 15.32,10.26C14.599,9.484 14.259,8.377 14.3,6.941C14.178,7.17 14.044,7.396 13.897,7.619C13.297,8.524 12.533,9.324 11.611,10.015C10.802,10.614 9.925,11.069 8.974,11.379C8.023,11.689 7.032,11.847 5.996,11.847C4.964,11.847 4.031,11.694 3.202,11.387C2.373,11.077 1.664,10.622 1.066,10.015C0.41,9.35 -0.047,8.559 -0.306,7.641C-0.565,6.723 -0.597,5.761 -0.408,4.764C-0.317,4.288 -0.182,3.821 0.001,3.366L0,3.366ZM7.933,2.863C8.777,3.031 9.194,4.018 8.863,5.068C8.534,6.118 7.581,6.833 6.737,6.666C5.892,6.498 5.476,5.511 5.806,4.461C6.136,3.41 7.088,2.695 7.933,2.863M77.152,2.863C77.997,3.031 78.414,4.018 78.083,5.068C77.753,6.118 76.801,6.833 75.957,6.666C75.112,6.498 74.695,5.511 75.025,4.461C75.355,3.41 76.308,2.695 77.152,2.863M62.063,2.863C62.907,3.031 63.324,4.018 62.994,5.068C62.664,6.118 61.711,6.833 60.867,6.666C60.023,6.498 59.606,5.511 59.936,4.461C60.266,3.41 61.219,2.695 62.063,2.863M46.913,2.733C47.792,2.908 48.225,3.935 47.882,5.028C47.538,6.121 46.547,6.866 45.668,6.691C44.79,6.517 44.355,5.489 44.699,4.396C45.043,3.303 46.034,2.559 46.913,2.733" style="fill:rgb(153,255,0);"/>
            </g>
            <g transform="matrix(1,0,0,1,21.2235,59.0953)">
                <path d="M0,3.366C0.314,2.432 0.899,1.468 1.979,0.449C2.308,0.124 2.665,-0.179 3.048,-0.464C3.875,-1.071 4.757,-1.526 5.704,-1.836C6.649,-2.142 7.64,-2.295 8.672,-2.295C9.708,-2.295 10.64,-2.137 11.473,-1.827C12.306,-1.516 13.02,-1.062 13.614,-0.464C14.266,0.201 14.719,0.992 14.975,1.907C15.006,2.021 15.034,2.137 15.058,2.253L15.84,-1.871L22.166,-1.871L21.177,3.343L21.187,3.343L20.834,5.147C20.607,6.312 20.802,6.957 21.568,6.811C22.124,6.991 22.62,6.657 22.812,5.652L23.253,3.343L23.254,3.343L23.278,3.217L23.278,3.213L24.243,-1.871L32.361,-1.871L33.192,-6.252L39.624,-6.252L38.792,-1.871L40.624,-1.871L40.147,0.643C40.392,0.301 40.661,-0.022 40.952,-0.323C42.204,-1.622 43.603,-2.268 45.15,-2.268C45.985,-2.268 46.706,-2.081 47.307,-1.7C47.913,-1.32 48.403,-0.747 48.788,0.013C48.799,-0.254 48.824,-0.572 48.873,-0.944C48.922,-1.316 49,-1.775 49.104,-2.321L50.272,-8.481L56.584,-8.481L54.484,2.594C54.607,2.364 54.745,2.135 54.894,1.91C55.5,1.001 56.257,0.21 57.167,-0.464C57.995,-1.071 58.877,-1.526 59.824,-1.836C60.769,-2.142 61.76,-2.295 62.791,-2.295C63.828,-2.295 64.759,-2.137 65.592,-1.827C66.425,-1.516 67.139,-1.062 67.733,-0.464C68.386,0.201 68.839,0.992 69.094,1.907C69.208,2.321 69.276,2.746 69.299,3.179C69.488,2.747 69.72,2.323 69.994,1.91C70.6,1.001 71.357,0.21 72.268,-0.464C73.096,-1.071 73.977,-1.526 74.924,-1.836C75.869,-2.142 76.86,-2.295 77.892,-2.295C78.928,-2.295 79.86,-2.137 80.693,-1.827C81.526,-1.516 82.239,-1.062 82.834,-0.464C83.486,0.201 83.939,0.992 84.195,1.907C84.274,2.199 84.332,2.496 84.367,2.799L85.252,-1.871L91.491,-1.871L91.138,-0.012C91.838,-0.774 92.567,-1.346 93.322,-1.726C94.076,-2.107 94.868,-2.295 95.698,-2.295C95.818,-2.295 95.91,-2.296 95.971,-2.291L95.156,3.343L94.166,3.343C91.961,3.452 90.519,4.371 90.191,6.098L89.195,11.348L82.751,11.348L83.627,6.733C83.478,7.033 83.308,7.329 83.117,7.619C82.517,8.524 81.753,9.324 80.831,10.015C80.022,10.614 79.145,11.069 78.194,11.379C77.243,11.689 76.251,11.847 75.215,11.847C74.184,11.847 73.25,11.694 72.421,11.387C71.593,11.077 70.883,10.622 70.286,10.015C69.629,9.35 69.172,8.559 68.914,7.641C68.796,7.224 68.724,6.798 68.7,6.364C68.513,6.791 68.286,7.21 68.017,7.619C67.417,8.524 66.653,9.324 65.73,10.015C64.922,10.614 64.044,11.069 63.094,11.379C62.143,11.689 61.151,11.847 60.115,11.847C59.083,11.847 58.151,11.694 57.321,11.387C56.493,11.077 55.783,10.622 55.186,10.015C54.53,9.35 54.072,8.559 53.813,7.641C53.75,7.415 53.7,7.186 53.663,6.955L52.829,11.348L46.849,11.348L47.218,9.403C46.508,10.22 45.762,10.832 44.977,11.239C44.187,11.645 43.358,11.847 42.479,11.847C40.879,11.847 39.717,11.196 38.981,9.888C38.246,8.581 38.085,6.85 38.496,4.685C38.583,4.223 38.692,3.781 38.823,3.357L37.807,3.357L36.291,11.348L29.86,11.348L31.376,3.358L29.569,3.359L29.212,5.241C28.779,7.528 27.875,9.201 26.499,10.26C25.126,11.318 23.164,11.847 20.619,11.847C18.066,11.847 16.3,11.318 15.32,10.26C14.599,9.484 14.259,8.377 14.3,6.941C14.178,7.17 14.044,7.396 13.897,7.619C13.297,8.524 12.533,9.324 11.611,10.015C10.802,10.614 9.925,11.069 8.974,11.379C8.023,11.689 7.032,11.847 5.996,11.847C4.964,11.847 4.031,11.694 3.202,11.387C2.373,11.077 1.664,10.622 1.066,10.015C0.41,9.35 -0.047,8.559 -0.306,7.641C-0.565,6.723 -0.597,5.761 -0.408,4.764C-0.317,4.288 -0.182,3.821 0.001,3.366L0,3.366ZM7.933,2.863C8.777,3.031 9.194,4.018 8.863,5.068C8.534,6.118 7.581,6.833 6.737,6.666C5.892,6.498 5.476,5.511 5.806,4.461C6.136,3.41 7.088,2.695 7.933,2.863M77.152,2.863C77.997,3.031 78.414,4.018 78.083,5.068C77.753,6.118 76.801,6.833 75.957,6.666C75.112,6.498 74.695,5.511 75.025,4.461C75.355,3.41 76.308,2.695 77.152,2.863M62.063,2.863C62.907,3.031 63.324,4.018 62.994,5.068C62.664,6.118 61.711,6.833 60.867,6.666C60.023,6.498 59.606,5.511 59.936,4.461C60.266,3.41 61.219,2.695 62.063,2.863M46.913,2.733C47.792,2.908 48.225,3.935 47.882,5.028C47.538,6.121 46.547,6.866 45.668,6.691C44.79,6.517 44.355,5.489 44.699,4.396C45.043,3.303 46.034,2.559 46.913,2.733" style="fill:rgb(102,102,102);"/>
            </g>
        </g>
    </g>
    <defs>
        <linearGradient id="_Linear1" x1="0" y1="0" x2="1" y2="0" gradientUnits="userSpaceOnUse" gradientTransform="matrix(0,-1,-1,-0,0.499995,0.499995)"><stop offset="0" style="stop-color:rgb(228,112,29);stop-opacity:1"/><stop offset="1" style="stop-color:rgb(206,101,58);stop-opacity:1"/></linearGradient>
    </defs>
</svg>
